<?xml version="1.0" encoding="UTF-8" standalone="no"?>
<!-- Uploaded to: SVG Repo, www.svgrepo.com, Generator: SVG Repo Mixer Tools -->

<svg
   fill="#f9f9f9"
   width="800px"
   height="800px"
   viewBox="0 0 1920 1920"
   version="1.1"
   id="svg1"
   sodipodi:docname="audio.svg"
   inkscape:version="1.3 (0e150ed6c4, 2023-07-21)"
   xmlns:inkscape="http://www.inkscape.org/namespaces/inkscape"
   xmlns:sodipodi="http://sodipodi.sourceforge.net/DTD/sodipodi-0.dtd"
   xmlns="http://www.w3.org/2000/svg"
   xmlns:svg="http://www.w3.org/2000/svg">
  <defs
     id="defs1" />
  <sodipodi:namedview
     id="namedview1"
     pagecolor="#505050"
     bordercolor="#eeeeee"
     borderopacity="1"
     inkscape:showpageshadow="0"
     inkscape:pageopacity="0"
     inkscape:pagecheckerboard="0"
     inkscape:deskcolor="#505050"
     inkscape:zoom="1.2575"
     inkscape:cx="399.60239"
     inkscape:cy="400"
     inkscape:window-width="2263"
     inkscape:window-height="1202"
     inkscape:window-x="-8"
     inkscape:window-y="-8"
     inkscape:window-maximized="1"
     inkscape:current-layer="svg1" />
  <path
     d="M 1129.432,0.39562624 V 1923.5695 H 903.545 L 451.773,1410.7229 V 513.24221 L 903.545,0.39562624 Z M 1671.977,281.98657 C 1832.017,463.6618 1920,705.21245 1920,962.02001 c 0,256.80869 -87.983,498.23109 -248.023,679.90629 l -79.851,-90.6446 c 138.694,-157.3164 214.93,-366.6857 214.93,-589.26056 0,-222.70428 -76.236,-431.94524 -214.93,-589.3888 z M 338.83,513.24221 V 1410.7229 H 169.415 C 75.672,1410.7229 0,1324.8211 0,1218.4053 V 705.55869 C 0,599.14404 75.672,513.24221 169.415,513.24221 Z m 1093.922,40.9632 c 95.776,110.13353 148.407,255.01283 148.407,407.71357 0,152.82792 -52.631,297.70612 -148.407,407.84072 l -80.303,-89.8772 c 74.656,-86.1573 115.767,-199.1118 115.767,-317.96466 0,-118.72347 -41.111,-231.67792 -115.767,-317.83631 z"
     fill-rule="evenodd"
     id="path1"
     style="stroke-width:1.06545" />
</svg>
