<?xml version="1.0" encoding="UTF-8" standalone="no"?>
<!-- Uploaded to: SVG Repo, www.svgrepo.com, Generator: SVG Repo Mixer Tools -->

<svg
   fill="#f9f9f9"
   width="800px"
   height="800px"
   viewBox="0 0 20 20"
   version="1.1"
   id="svg1"
   sodipodi:docname="facebook-svgrepo-com.svg"
   inkscape:version="1.3 (0e150ed6c4, 2023-07-21)"
   xmlns:inkscape="http://www.inkscape.org/namespaces/inkscape"
   xmlns:sodipodi="http://sodipodi.sourceforge.net/DTD/sodipodi-0.dtd"
   xmlns="http://www.w3.org/2000/svg"
   xmlns:svg="http://www.w3.org/2000/svg">
  <defs
     id="defs1" />
  <sodipodi:namedview
     id="namedview1"
     pagecolor="#505050"
     bordercolor="#eeeeee"
     borderopacity="1"
     inkscape:showpageshadow="0"
     inkscape:pageopacity="0"
     inkscape:pagecheckerboard="0"
     inkscape:deskcolor="#505050"
     inkscape:zoom="1.2575"
     inkscape:cx="399.60239"
     inkscape:cy="400"
     inkscape:window-width="2263"
     inkscape:window-height="1202"
     inkscape:window-x="-8"
     inkscape:window-y="-8"
     inkscape:window-maximized="1"
     inkscape:current-layer="svg1" />
  <rect
     x="0"
     fill="none"
     width="20"
     height="20"
     id="rect1" />
  <g
     id="g1"
     transform="matrix(1.2485089,0,0,1.2485089,-2.4850895,-2.4850895)">
    <path
       d="M 2.89,2 H 17.12 C 17.61,2 18,2.39 18,2.88 V 17.12 C 18,17.6 17.61,18 17.12,18 h -4.08 v -6.2 h 2.08 L 15.43,9.39 H 13.04 V 7.85 c 0,-0.7 0.2,-1.18 1.2,-1.18 h 1.28 V 4.51 C 15.3,4.48 14.54,4.42 13.66,4.42 c -1.85,0 -3.11,1.12 -3.11,3.19 V 9.39 H 8.46 v 2.41 h 2.09 V 18 H 2.89 C 2.4,18 2,17.6 2,17.12 V 2.88 C 2,2.39 2.4,2 2.89,2 Z"
       id="path1" />
  </g>
</svg>
